# https://github.com/mikedh/trimesh
v -0.02780000 -0.02780000 -0.02780000 0.94117647 0.73725490 0.52941176
v -0.02780000 -0.02780000 0.02780000 1.00000000 0.69803922 0.20000000
v -0.02780000 0.02780000 -0.02780000 0.50588235 0.37254902 0.53725490
v -0.02780000 0.02780000 0.02780000 0.74901961 0.68235294 0.68235294
v 0.02780000 -0.02780000 -0.02780000 0.70588235 0.50196078 0.10196078
v 0.02780000 -0.02780000 0.02780000 0.49803922 0.61568627 0.14117647
v 0.02780000 0.02780000 -0.02780000 0.19215686 0.41176471 0.35294118
v 0.02780000 0.02780000 0.02780000 0.40000000 0.41176471 0.34509804
f 2 4 1
f 5 2 1
f 1 4 3
f 3 5 1
f 2 8 4
f 6 2 5
f 6 8 2
f 4 8 3
f 7 5 3
f 3 8 7
f 7 6 5
f 8 6 7

