#usda 1.0
(
    customLayerData = {
        string creator = "URDF USD Converter v0.1.3"
    }
    defaultPrim = "m1013"
    kilogramsPerUnit = 1
    metersPerUnit = 1
    upAxis = "Z"
)

def Xform "m1013" (
    prepend apiSchemas = ["GeomModelAPI"]
    assetInfo = {
        string name = "m1013"
    }
    kind = "component"
    prepend payload = @./Payload/Contents.usda@
)
{
    float3[] extentsHint = [(-6.972208, -108.772316, -216.59108), (4.471858, 199.42255, 592.9891), (3.4028235e38, 3.4028235e38, 3.4028235e38), (-3.4028235e38, -3.4028235e38, -3.4028235e38), (3.4028235e38, 3.4028235e38, 3.4028235e38), (-3.4028235e38, -3.4028235e38, -3.4028235e38), (-6.972208, -108.772316, -216.59108), (4.471858, 199.42255, 592.9891)]
}

def PhysicsScene "PhysicsScene" (
    prepend payload = @./Payload/Contents.usda@</PhysicsScene>
)
{
}

